# xmcd CD database file
# Copyright (C) 1993-1998 Ti Kan
# 
# Track frame offsets:
#     150
#     21980
#     28005
#     60572
#     94715
#     114285
#     163340
#     180375
#     237567
# 
# Disc length: 4205 seconds
# 
# Revision: 1
# Processed by: cddbd v1.4b41PL1 Copyright (c) Steve Scherf et al.
# Submitted via: DiscPlay 4.0.4
# 
DISCID=6f106b09
DTITLE=ALbert Collins - The Iceman Cometh
DYEAR=1900
DGENRE=
TTITLE0=Intro
TTITLE1=Johnny B. Cool
TTITLE2=All About My Girl
TTITLE3=I've Got A Mind To Travel
TTITLE4=Cold Tremor
TTITLE5=Wah Heat
TTITLE6=Things That I Used To Do
TTITLE7=Frosty
TTITLE8=Can't You See What You're Doing To Me
EXTD=
EXTT0=
EXTT1=
EXTT2=
EXTT3=
EXTT4=
EXTT5=
EXTT6=
EXTT7=
EXTT8=
PLAYORDER=
